<svg width="219" height="80" viewBox="0 0 219 80" fill="none" xmlns="http://www.w3.org/2000/svg">
<path d="M1.73438 64L9.70313 16H27.7031C31.3906 16 34.375 16.6875 36.6563 18.0625C38.9375 19.4219 40.5234 21.3047 41.4141 23.7109C42.3047 26.1016 42.4922 28.8281 41.9766 31.8906C41.4766 34.9687 40.375 37.7031 38.6719 40.0938C36.9844 42.4844 34.7578 44.3672 31.9922 45.7422C29.2266 47.1016 25.9922 47.7812 22.2891 47.7812H10.3594L11.5547 40.6328H22.3125C24.4688 40.6328 26.2969 40.2578 27.7969 39.5078C29.3125 38.7578 30.5078 37.7266 31.3828 36.4141C32.2578 35.1016 32.8359 33.5937 33.1172 31.8906C33.3828 30.1875 33.2969 28.6875 32.8594 27.3906C32.4219 26.0937 31.5703 25.0859 30.3047 24.3672C29.0547 23.6328 27.3438 23.2656 25.1719 23.2656H17.2031L10.4297 64H1.73438ZM44.1445 64L52.1133 16H70.1133C73.8008 16 76.793 16.6406 79.0898 17.9219C81.3867 19.2031 82.9883 21 83.8945 23.3125C84.8008 25.6094 84.9961 28.2891 84.4805 31.3516C83.9805 34.4141 82.8867 37.0781 81.1992 39.3437C79.5273 41.5937 77.3164 43.3359 74.5664 44.5703C71.832 45.8047 68.6211 46.4219 64.9336 46.4219H52.1133L53.332 39.2031H65.0039C67.1602 39.2031 68.9727 38.9062 70.4414 38.3125C71.9102 37.7031 73.0664 36.8203 73.9102 35.6641C74.7695 34.4922 75.3398 33.0547 75.6211 31.3516C75.8867 29.6484 75.7852 28.1953 75.3164 26.9922C74.8633 25.7734 73.9961 24.8516 72.7148 24.2266C71.4492 23.5859 69.7383 23.2656 67.582 23.2656H59.6133L52.8398 64H44.1445ZM72.5508 42.25L80.8242 64H71.1211L63.0586 42.25H72.5508ZM134.109 40.5625C133.266 45.6562 131.602 50 129.117 53.5938C126.648 57.1719 123.633 59.9141 120.07 61.8203C116.523 63.7109 112.703 64.6562 108.609 64.6562C104.313 64.6562 100.625 63.6562 97.5469 61.6563C94.4688 59.6406 92.25 56.7578 90.8906 53.0078C89.5469 49.2578 89.3125 44.7578 90.1875 39.5078C91.0313 34.4297 92.6875 30.0859 95.1563 26.4766C97.625 22.8672 100.648 20.1094 104.227 18.2031C107.805 16.2969 111.664 15.3437 115.805 15.3437C120.07 15.3437 123.727 16.3516 126.773 18.3672C129.836 20.3672 132.039 23.25 133.383 27.0156C134.742 30.7812 134.984 35.2969 134.109 40.5625ZM125.555 39.5078C126.133 35.9609 126.078 32.9687 125.391 30.5312C124.719 28.0937 123.523 26.2578 121.805 25.0234C120.086 23.7734 117.969 23.1484 115.453 23.1484C112.734 23.1484 110.219 23.8281 107.906 25.1875C105.609 26.5312 103.656 28.5 102.047 31.0937C100.453 33.6875 99.3594 36.8437 98.7656 40.5625C98.1406 44.125 98.1797 47.1172 98.8828 49.5391C99.5859 51.9609 100.805 53.7891 102.539 55.0234C104.273 56.2422 106.391 56.8516 108.891 56.8516C111.594 56.8516 114.094 56.1797 116.391 54.8359C118.688 53.4922 120.633 51.5312 122.227 48.9531C123.836 46.375 124.945 43.2266 125.555 39.5078Z" fill="white"/>
<path d="M143.496 41.9204L146.281 25.4992L159.376 16.2633L156.926 32.7109L143.496 41.9204Z" fill="#FF6421" fill-opacity="0.7" stroke="url(#paint0_linear_161_121)"/>
<path d="M145.504 63.8733L148.798 43.2872L187.51 15.9991L185.079 34.724L145.504 63.8733Z" fill="#FF6421" fill-opacity="0.7" stroke="url(#paint1_linear_161_121)"/>
<path d="M172.702 64.4172L176.356 45.5431L217.522 16.1219L214.256 34.2788L172.702 64.4172Z" fill="#FF6421" fill-opacity="0.7" stroke="url(#paint2_linear_161_121)"/>
<defs>
<linearGradient id="paint0_linear_161_121" x1="153.199" y1="16.9695" x2="141.516" y2="22.6618" gradientUnits="userSpaceOnUse">
<stop stop-color="#FF6421"/>
<stop offset="1" stop-color="white" stop-opacity="0"/>
</linearGradient>
<linearGradient id="paint1_linear_161_121" x1="170.946" y1="18.1531" x2="146.107" y2="35.0587" gradientUnits="userSpaceOnUse">
<stop stop-color="#FF6421"/>
<stop offset="1" stop-color="white" stop-opacity="0"/>
</linearGradient>
<linearGradient id="paint2_linear_161_121" x1="199.863" y1="18.2506" x2="174.295" y2="36.6436" gradientUnits="userSpaceOnUse">
<stop stop-color="#FF6421"/>
<stop offset="1" stop-color="white" stop-opacity="0"/>
</linearGradient>
</defs>
</svg>
